<mxfile host="app.diagrams.net" modified="2023-05-11T12:02:32.876Z" agent="Mozilla/5.0 (Windows NT 10.0; Win64; x64) AppleWebKit/537.36 (KHTML, like Gecko) Chrome/112.0.0.0 Safari/537.36" version="21.2.9" etag="xOTwiI8CxS72Cdeb6pu5" type="github">
  <diagram name="Page-1" id="qj5rJED3Sc2-tH0dSDtB">
    <mxGraphModel>
      <root>
        <mxCell id="0" />
        <mxCell id="1" parent="0" />
      </root>
    </mxGraphModel>
  </diagram>
</mxfile>
